<?xml version="1.0" standalone="no"?>
<!DOCTYPE svg PUBLIC "-//W3C//DTD SVG 20010904//EN"
 "http://www.w3.org/TR/2001/REC-SVG-20010904/DTD/svg10.dtd">
<svg version="1.0" xmlns="http://www.w3.org/2000/svg"
 width="200.000000pt" height="200.000000pt" viewBox="0 0 200.000000 200.000000"
 preserveAspectRatio="xMidYMid meet">
<metadata>
Created by potrace 1.14, written by Peter Selinger 2001-2017
</metadata>
<g transform="translate(0.000000,200.000000) scale(0.100000,-0.100000)"
fill="#000000" stroke="none">
<path d="M1056 1981 c-4 -6 -5 -11 -1 -11 3 0 1 -9 -5 -19 -6 -13 -17 -17 -30
-14 -11 3 -20 1 -20 -5 0 -6 10 -12 23 -14 19 -3 22 -8 19 -42 -2 -22 -1 -49
2 -62 11 -42 86 -37 86 6 0 11 -4 20 -10 20 -5 0 -10 -6 -10 -14 0 -8 -7 -16
-15 -20 -21 -8 -38 30 -30 70 5 28 10 34 30 34 14 0 25 5 25 10 0 6 -12 10
-26 10 -21 0 -25 4 -21 19 6 23 -7 48 -17 32z"/>
<path d="M1229 1968 c-1 -7 -1 -19 0 -26 1 -8 -5 -12 -16 -10 -10 1 -24 -1
-32 -6 -11 -7 -9 -12 8 -26 19 -14 22 -22 16 -54 -7 -33 -11 -37 -32 -33 -27
5 -40 -8 -24 -26 12 -16 106 -41 120 -33 5 3 11 3 13 -1 6 -14 69 -43 93 -43
55 0 52 66 -4 90 -34 14 -42 40 -12 40 20 0 46 -20 53 -42 5 -14 28 -2 28 16
0 7 -20 24 -44 37 -37 19 -47 21 -60 10 -28 -23 -20 -56 19 -74 43 -21 48 -50
8 -42 -16 2 -29 9 -31 13 -1 5 -9 18 -17 28 -14 18 -16 18 -25 2 -10 -16 -13
-17 -34 -3 -22 15 -23 19 -13 58 5 23 10 52 10 65 -1 12 3 22 9 22 5 0 8 10 6
22 -3 24 -37 38 -39 16z"/>
<path d="M920 1940 c0 -6 -16 -9 -40 -8 -21 2 -39 -1 -39 -7 -1 -5 7 -10 16
-10 10 0 18 -11 21 -30 8 -57 7 -70 -7 -70 -8 0 -16 -6 -19 -13 -3 -10 6 -12
39 -8 24 2 47 5 52 5 17 2 5 20 -15 23 -19 2 -23 9 -23 42 0 27 6 42 19 50 14
8 20 8 23 -1 8 -23 35 -15 31 10 -2 16 -11 23 -30 25 -16 2 -28 -2 -28 -8z"/>
<path d="M544 1896 c-6 -17 54 -98 67 -90 4 2 1 20 -7 39 -8 19 -11 35 -8 35
4 0 1 7 -6 15 -16 19 -39 19 -46 1z"/>
<path d="M683 1890 c-13 -5 -23 -18 -23 -29 0 -30 19 -35 29 -8 11 28 45 41
61 22 8 -10 5 -17 -12 -29 -12 -9 -27 -16 -32 -16 -19 0 -45 -32 -39 -48 14
-37 60 -43 88 -12 12 13 25 18 40 14 24 -6 41 18 28 39 -4 7 -9 3 -14 -9 -7
-20 -9 -16 -40 64 -9 24 -44 29 -86 12z m73 -95 c-18 -28 -38 -32 -55 -11 -13
15 -1 29 40 44 30 12 36 -1 15 -33z"/>
<path d="M460 1852 c-9 -4 -27 -15 -40 -24 -19 -14 -22 -20 -12 -30 10 -10 17
-10 32 0 15 9 22 9 35 -4 8 -8 15 -19 15 -24 0 -5 6 -15 13 -22 34 -33 36 -50
8 -74 -23 -20 -24 -23 -8 -29 18 -7 127 56 127 73 0 16 -13 22 -26 11 -22 -18
-42 -3 -85 66 -23 36 -42 65 -43 64 0 0 -8 -3 -16 -7z"/>
<path d="M1532 1805 c-10 -11 -18 -13 -32 -5 -11 6 -21 6 -24 1 -3 -5 1 -11 9
-15 21 -8 19 -21 -11 -66 -23 -35 -25 -44 -16 -65 13 -29 52 -34 72 -10 17 20
5 32 -15 15 -12 -10 -18 -10 -30 0 -13 10 -13 16 0 39 22 43 43 57 65 43 11
-7 21 -8 25 -3 3 5 -4 13 -16 16 -12 4 -18 12 -15 21 3 8 9 21 12 29 8 19 -7
19 -24 0z"/>
<path d="M1604 1689 c-28 -10 -64 -57 -64 -83 0 -25 26 -59 56 -74 16 -8 26
-8 39 2 20 14 11 41 -10 32 -14 -5 -45 24 -45 42 0 21 22 13 51 -20 23 -27 31
-31 46 -22 27 17 29 72 3 99 -26 28 -48 35 -76 24z m66 -69 c0 -5 -2 -10 -4
-10 -3 0 -8 5 -11 10 -3 6 -1 10 4 10 6 0 11 -4 11 -10z"/>
<path d="M220 1650 c0 -11 7 -23 15 -26 10 -4 13 -14 9 -29 -7 -28 9 -40 29
-20 13 13 18 12 44 -7 15 -12 29 -23 31 -24 2 -1 -2 -12 -8 -24 -9 -17 -9 -25
0 -34 8 -8 21 0 51 32 21 24 39 50 39 58 0 16 -26 19 -35 4 -10 -16 -19 -12
-66 24 -23 19 -46 33 -50 30 -4 -2 -9 5 -12 16 -7 27 -47 27 -47 0z"/>
<path d="M205 1514 c-24 -18 -27 -84 -4 -107 9 -8 32 -19 51 -22 30 -6 38 -3
57 20 25 33 27 67 5 86 -14 11 -15 9 -9 -23 6 -32 4 -38 -18 -53 -19 -12 -31
-14 -45 -6 -32 17 -45 39 -38 67 6 21 11 25 30 20 27 -7 44 19 20 28 -22 8
-26 7 -49 -10z"/>
<path d="M1750 1457 c0 -25 69 -164 85 -171 26 -9 16 33 -23 108 -35 67 -62
94 -62 63z"/>
<path d="M130 1385 c-7 -8 -10 -24 -7 -36 3 -13 -2 -28 -14 -40 -20 -20 -26
-49 -9 -49 6 0 10 7 10 15 0 19 30 19 75 1 27 -11 32 -19 28 -35 -10 -40 14
-21 32 25 19 49 13 70 -10 37 -18 -25 -44 -21 -75 12 -16 17 -19 28 -13 40 6
9 13 16 16 16 25 -3 29 2 13 14 -25 19 -31 19 -46 0z"/>
<path d="M71 1204 c-12 -15 -21 -38 -21 -51 0 -36 42 -73 83 -73 33 0 76 29
78 53 1 7 3 22 4 34 3 25 -28 58 -44 48 -14 -8 -14 -35 -1 -35 14 0 13 -33 -2
-48 -23 -23 -29 -11 -23 43 l7 55 -30 0 c-21 0 -37 -8 -51 -26z"/>
<path d="M1909 1145 c-18 -17 -46 -21 -83 -11 -35 9 -47 -5 -37 -43 4 -14 6
-52 5 -84 -1 -44 2 -60 13 -64 8 -3 18 -1 22 5 3 5 24 11 46 13 67 5 74 12 70
72 -2 28 -5 54 -6 57 0 3 0 17 1 32 2 32 -12 42 -31 23z m-13 -63 c10 -6 15
-12 9 -12 -5 -1 -19 -3 -30 -6 -11 -2 -31 -2 -43 1 -19 5 -21 9 -12 19 12 16
47 15 76 -2z m-2 -58 c9 -3 16 -12 16 -19 0 -11 -11 -12 -72 -7 -10 1 -18 9
-18 17 0 16 43 21 74 9z"/>
<path d="M165 1050 c-3 -5 -24 -10 -46 -10 -65 0 -75 -10 -71 -72 2 -29 3 -67
2 -85 -1 -37 15 -51 28 -26 11 18 69 25 89 10 19 -14 46 0 39 20 -4 9 -7 52
-7 95 0 60 -3 78 -14 78 -8 0 -17 -4 -20 -10z m7 -58 c8 -8 4 -13 -16 -18 -28
-7 -76 9 -76 25 0 13 78 7 92 -7z m5 -68 c2 -6 -5 -14 -16 -17 -28 -7 -71 3
-71 18 0 15 82 15 87 -1z"/>
<path d="M1814 920 c-28 -11 -49 -72 -35 -98 14 -26 42 -36 53 -20 6 10 8 8 8
-4 0 -25 41 -23 74 3 19 15 26 30 26 54 0 58 -64 90 -126 65z m36 -49 c0 -32
-11 -50 -26 -44 -17 6 -18 35 -2 51 17 17 28 15 28 -7z"/>
<path d="M1756 733 c-18 -51 -12 -70 11 -36 12 19 18 20 44 11 16 -5 34 -19
40 -31 10 -17 7 -23 -12 -38 -20 -15 -22 -20 -11 -31 19 -19 47 3 47 38 0 16
8 37 18 47 19 19 23 47 7 47 -5 0 -10 -7 -10 -15 0 -19 -30 -19 -75 -1 -27 11
-32 19 -28 35 11 42 -16 20 -31 -26z"/>
<path d="M137 694 c-8 -8 66 -156 87 -173 28 -23 19 21 -20 103 -34 70 -50 87
-67 70z"/>
<path d="M1709 623 c-18 -4 -39 -44 -39 -72 0 -10 7 -25 17 -32 15 -13 16 -11
9 22 -5 27 -2 40 9 49 21 17 61 16 79 -3 30 -30 14 -84 -22 -73 -24 8 -39 -19
-16 -28 25 -9 32 -7 54 16 52 57 -12 143 -91 121z"/>
<path d="M1606 486 c-48 -59 -47 -85 3 -54 16 10 25 7 55 -20 20 -18 43 -32
50 -32 8 0 16 -9 19 -20 3 -12 14 -20 25 -20 28 0 36 27 12 40 -15 8 -19 17
-14 34 7 29 -9 41 -29 22 -12 -12 -18 -11 -45 11 -27 20 -30 28 -22 44 11 19
6 39 -9 39 -5 0 -25 -20 -45 -44z"/>
<path d="M367 459 c-25 -14 -22 -43 3 -36 22 6 50 -16 50 -39 0 -22 -17 -17
-52 16 -36 35 -44 37 -58 11 -23 -45 0 -96 53 -115 38 -13 97 44 97 92 -1 40
-63 87 -93 71z"/>
<path d="M470 355 c-16 -20 -5 -32 14 -16 8 7 20 10 26 6 17 -11 11 -43 -14
-72 -21 -24 -28 -26 -44 -16 -28 17 -35 4 -9 -18 18 -14 20 -20 10 -30 -7 -7
-13 -20 -13 -28 0 -11 6 -9 20 7 17 17 25 20 40 12 29 -16 35 -12 14 11 -16
18 -16 23 -4 42 45 73 46 74 26 96 -23 25 -49 27 -66 6z"/>
<path d="M1432 324 c-29 -19 -51 -41 -49 -47 3 -7 11 -10 18 -8 8 2 21 5 29 8
9 2 25 -11 39 -34 14 -21 35 -52 48 -70 l23 -32 35 20 c19 12 35 27 35 35 0
17 -31 19 -47 3 -8 -8 -21 2 -47 37 -41 57 -43 65 -16 89 20 18 18 35 -3 35
-7 0 -36 -16 -65 -36z"/>
<path d="M595 270 c-17 -28 -12 -51 16 -70 16 -12 29 -18 29 -13 0 4 5 0 11
-10 5 -9 7 -21 4 -27 -8 -14 -53 9 -60 32 -8 22 -21 23 -29 2 -8 -21 -8 -24 5
-24 6 0 17 -7 25 -15 23 -23 65 -30 75 -14 19 30 9 55 -27 72 -36 18 -42 38
-11 43 18 2 26 -4 52 -41 l14 -20 15 20 c8 11 16 15 16 9 0 -7 8 -14 18 -16
17 -5 18 -10 7 -69 -6 -35 -15 -72 -20 -82 -10 -23 8 -42 30 -33 12 4 15 13
12 27 -5 17 -2 20 13 16 11 -3 24 1 30 8 9 10 6 16 -10 25 -15 8 -19 18 -16
38 2 15 5 33 5 40 1 7 9 12 19 11 29 -3 42 1 42 11 0 19 -63 43 -112 43 -16 0
-28 4 -28 8 0 5 -8 9 -19 9 -10 0 -24 7 -31 15 -14 17 -66 20 -75 5z"/>
<path d="M1247 230 c-15 -12 -32 -17 -42 -14 -17 7 -35 -10 -35 -33 0 -19 18
-15 23 5 4 16 19 -10 40 -70 4 -12 17 -18 39 -18 41 0 79 25 72 45 -9 23 -31
18 -38 -8 -4 -17 -12 -23 -28 -22 -12 1 -24 7 -26 14 -5 16 17 41 36 41 24 0
51 30 45 48 -14 37 -48 42 -86 12z m53 -10 c13 -9 11 -13 -10 -30 -25 -20 -60
-27 -60 -12 0 14 31 52 43 52 7 0 19 -5 27 -10z"/>
<path d="M886 197 c-12 -9 -16 -22 -13 -38 l4 -24 8 23 c8 23 39 30 50 11 4
-6 4 -30 1 -53 -6 -39 -9 -43 -31 -38 -15 2 -25 0 -25 -7 0 -6 12 -11 26 -11
21 0 25 -4 21 -19 -2 -10 -1 -25 4 -32 5 -9 10 -5 14 14 5 20 13 27 31 27 30
0 32 17 2 22 -19 3 -22 9 -22 60 -1 31 -3 58 -6 61 -15 13 -48 15 -64 4z"/>
<path d="M1070 202 c-18 -6 -11 -21 13 -24 29 -4 37 -67 11 -93 -16 -16 -19
-16 -29 -1 -18 23 -37 20 -33 -7 4 -28 43 -35 68 -12 12 11 20 13 25 6 9 -16
58 -14 52 2 -2 6 -11 11 -20 9 -15 -2 -19 7 -32 77 -3 17 1 24 15 28 35 9 21
24 -20 21 -22 -2 -44 -4 -50 -6z"/>
<path d="M1393 175 c11 -57 26 -87 44 -83 30 6 25 33 -13 74 l-37 39 6 -30z"/>
</g>
</svg>
